<svg width="1000" height="1000" xmlns="http://www.w3.org/2000/svg">

 <g>
  <title>Layer 1</title>
  <path d="m-1,-1l1000,0l0,1000l-1000,0l0,-1000z" visibility="hidden" fill="#ea7507" id="Color-Fill"/>
  <g id="Logo-Placeholder-Replace-With-Your-Logo-"/>
  <g stroke="null" id="Group">
   <g stroke="null" id="g1">
    <path stroke="null" d="m11.14446,151.9725c0,65.59651 51.27157,118.77299 114.51825,118.77299l752.54874,0c63.24663,0 114.51825,-53.17648 114.51825,-118.77299c0,-65.59639 -51.27162,-118.77288 -114.51825,-118.77288l-752.54874,0c-63.24669,0 -114.51825,53.17648 -114.51825,118.77288z" fill-rule="evenodd" fill="#ea7507" id="Rounded-Rectangle"/>
    <path stroke="null" d="m11.14446,511.68474c0,65.59651 51.27157,118.77288 114.51831,118.77288l425.35356,0c63.24674,0 114.51836,-53.17637 114.51836,-118.77288c0,-65.59639 -51.27162,-118.77288 -114.51836,-118.77288l-425.35356,0c-63.24674,0 -114.51831,53.17648 -114.51831,118.77288z" fill-rule="evenodd" fill="#ea7507" id="Rounded-Rectangle-copy"/>
    <path stroke="null" d="m11.14446,861.21646c0,65.59651 51.27157,118.77288 114.51825,118.77288c63.24674,0 114.51831,-53.17637 114.51831,-118.77288c0,-65.59651 -51.27157,-118.77299 -114.51831,-118.77299c-63.24669,0 -114.51825,53.17648 -114.51825,118.77299z" fill-rule="evenodd" fill="#ea7507" id="Rounded-Rectangle-copy-2"/>
   </g>
   <text stroke="null" transform="matrix(2.18744 0 0 1.97286 -731.321 -491.268)" fill="#ea7507" font-weight="700" font-size="96" font-family="Montserrat" y="533.19841" x="284.98606" xml:space="preserve" visibility="hidden" id="RONTENDER">RONTENDER</text>
   <g stroke="null" id="Group-copy">
    <path stroke="null" d="m-579.49992,282.48479c0,38.1353 34.27714,69.05009 76.56011,69.05009l503.1093,0c42.28297,0 76.56011,-30.91479 76.56011,-69.05009c0,-38.1353 -34.27714,-69.05009 -76.56011,-69.05009l-503.1093,0c-42.28297,0 -76.56011,30.91479 -76.56011,69.05009z" visibility="hidden" fill-rule="evenodd" fill="#ea7507" id="path1"/>
    <path stroke="null" d="m-579.49992,491.60792c0,38.1353 34.27714,69.05009 76.56011,69.05009l284.36612,0c42.28297,0 76.56011,-30.91479 76.56011,-69.05009c0,-38.1353 -34.27714,-69.05009 -76.56011,-69.05009l-284.36612,0c-42.28297,0 -76.56011,30.91479 -76.56011,69.05009z" visibility="hidden" fill-rule="evenodd" fill="#ea7507" id="path2"/>
    <path stroke="null" d="m-579.49992,694.81248c0,38.1353 34.27714,69.05009 76.56011,69.05009c42.28299,0 76.56011,-30.91479 76.56011,-69.05009c0,-38.1353 -34.27712,-69.05009 -76.56011,-69.05009c-42.28297,0 -76.56011,30.91479 -76.56011,69.05009z" visibility="hidden" fill-rule="evenodd" fill="#ea7507" id="path3"/>
   </g>
  </g>
 </g>
</svg>